<svg xmlns="http://www.w3.org/2000/svg" viewBox="0 0 32 31.215">
  <defs>
    <style>
      .cls-1 {
        fill: #007fff;
      }
    </style>
  </defs>
  <path id="Path_1399" data-name="Path 1399" class="cls-1" d="M835,1340a16.02,16.02,0,0,0-5.1,31.2c.8.1,1.1-.3,1.1-.8v-3c-4.4,1-5.4-1.9-5.4-1.9a4.11,4.11,0,0,0-1.8-2.3c-1.5-1,.1-1,.1-1a3.486,3.486,0,0,1,2.5,1.6c1.4,2.4,3.7,1.7,4.7,1.3a3.452,3.452,0,0,1,1-2.1c-3.6-.4-7.3-1.8-7.3-7.9a6.329,6.329,0,0,1,1.6-4.3,5.418,5.418,0,0,1,.2-4.2s1.3-.4,4.4,1.6a13.308,13.308,0,0,1,4-.5,17.521,17.521,0,0,1,4,.5c3.1-2.1,4.4-1.6,4.4-1.6a5.965,5.965,0,0,1,.2,4.2,6.147,6.147,0,0,1,1.6,4.3c0,6.1-3.7,7.5-7.3,7.9a3.819,3.819,0,0,1,1.1,3v4.4c0,.4.3.9,1.1.8A16.02,16.02,0,0,0,835,1340Z" transform="translate(-819 -1340)"/>
</svg>
