<svg width="385" height="64" viewBox="0 0 385 64" fill="none" xmlns="http://www.w3.org/2000/svg">
<mask id="path-1-inside-1" fill="white">
<path fill-rule="evenodd" clip-rule="evenodd" d="M12.5 11.1166C12.2239 11.1166 12 11.3404 12 11.6166V43.6671C12 54.7128 20.9543 63.6671 32 63.6671H365C376.046 63.6671 385 54.7128 385 43.6671V11.6166C385 11.3404 384.776 11.1166 384.5 11.1166V11.1166C384.224 11.1166 384 11.3404 384 11.6166V43.6671C384 54.1605 375.493 62.6671 365 62.6671H32C21.5066 62.6671 13 54.1605 13 43.6671V11.6166C13 11.3404 12.7761 11.1166 12.5 11.1166V11.1166Z"/>
</mask>
<path d="M12.5 43.6671V42.0646H11.5V43.6671H12.5ZM12.5 39.9279V36.7228H11.5V39.9279H12.5ZM12.5 34.5861V31.3811H11.5V34.5861H12.5ZM12.5 29.2444V26.0393H11.5V29.2444H12.5ZM12.5 23.9026V20.6976H11.5V23.9026H12.5ZM12.5 18.5609V15.3558H11.5V18.5609H12.5ZM12.5 13.2191V11.6166H11.5V13.2191H12.5ZM12.5 11.6166L12.4997 11.6169L11.6091 11.1622C11.5392 11.2991 11.5 11.454 11.5 11.6166H12.5ZM12.5003 11.6163L12.5 11.6166V10.6166C12.3374 10.6166 12.1825 10.6558 12.0456 10.7257L12.5003 11.6163ZM12.5 11.6166L12.4997 11.6163L12.9544 10.7257C12.8175 10.6558 12.6626 10.6166 12.5 10.6166V11.6166ZM12.5003 11.6169L12.5 11.6166H13.5C13.5 11.454 13.4608 11.2991 13.3909 11.1622L12.5003 11.6169ZM12.5 11.6166V13.2191H13.5V11.6166H12.5ZM12.5 15.3558V18.5609H13.5V15.3558H12.5ZM12.5 20.6976V23.9026H13.5V20.6976H12.5ZM12.5 26.0393V29.2444H13.5V26.0393H12.5ZM12.5 31.3811V34.5861H13.5V31.3811H12.5ZM12.5 36.7228V39.9279H13.5V36.7228H12.5ZM12.5 42.0646V43.6671H13.5V42.0646H12.5ZM12.5 43.6671C12.5 44.1822 12.52 44.6928 12.5592 45.198L13.5562 45.1206C13.519 44.6411 13.5 44.1563 13.5 43.6671H12.5ZM12.8233 47.2219C13.0104 48.2371 13.276 49.2248 13.6137 50.1784L14.5564 49.8446C14.2361 48.9402 13.9842 48.0036 13.8068 47.0407L12.8233 47.2219ZM14.3957 52.0641C14.838 52.9899 15.3512 53.8753 15.9282 54.7132L16.7518 54.146C16.2044 53.351 15.7175 52.5111 15.298 51.633L14.3957 52.0641ZM17.1719 56.3316C17.8356 57.108 18.5591 57.8315 19.3355 58.4952L19.9853 57.7351C19.2485 57.1053 18.5618 56.4186 17.932 55.6818L17.1719 56.3316ZM20.9539 59.7389C21.7918 60.3159 22.6772 60.8291 23.603 61.2714L24.0341 60.3691C23.156 59.9495 22.3161 59.4627 21.5211 58.9153L20.9539 59.7389ZM25.4887 62.0533C26.4423 62.3911 27.43 62.6567 28.4452 62.8437L28.6264 61.8603C27.6635 61.6829 26.7269 61.431 25.8225 61.1107L25.4887 62.0533ZM30.4691 63.1079C30.9743 63.1471 31.4849 63.1671 32 63.1671V62.1671C31.5108 62.1671 31.026 62.1481 30.5465 62.1109L30.4691 63.1079ZM32 63.1671H33.4911V62.1671H32V63.1671ZM35.4791 63.1671H38.4612V62.1671H35.4791V63.1671ZM40.4493 63.1671H43.4314V62.1671H40.4493V63.1671ZM45.4194 63.1671H48.4015V62.1671H45.4194V63.1671ZM50.3896 63.1671H53.3717V62.1671H50.3896V63.1671ZM55.3597 63.1671H58.3418V62.1671H55.3597V63.1671ZM60.3299 63.1671H63.312V62.1671H60.3299V63.1671ZM65.3 63.1671H68.2821V62.1671H65.3V63.1671ZM70.2702 63.1671H73.2523V62.1671H70.2702V63.1671ZM75.2403 63.1671H78.2224V62.1671H75.2403V63.1671ZM80.2105 63.1671H83.1926V62.1671H80.2105V63.1671ZM85.1806 63.1671H88.1627V62.1671H85.1806V63.1671ZM90.1508 63.1671H93.1329V62.1671H90.1508V63.1671ZM95.1209 63.1671H98.103V62.1671H95.1209V63.1671ZM100.091 63.1671H103.073V62.1671H100.091V63.1671ZM105.061 63.1671H108.043V62.1671H105.061V63.1671ZM110.031 63.1671H113.013V62.1671H110.031V63.1671ZM115.002 63.1671H117.984V62.1671H115.002V63.1671ZM119.972 63.1671H122.954V62.1671H119.972V63.1671ZM124.942 63.1671H127.924V62.1671H124.942V63.1671ZM129.912 63.1671H132.894V62.1671H129.912V63.1671ZM134.882 63.1671H137.864V62.1671H134.882V63.1671ZM139.852 63.1671H142.834V62.1671H139.852V63.1671ZM144.822 63.1671H147.805V62.1671H144.822V63.1671ZM149.793 63.1671H152.775V62.1671H149.793V63.1671ZM154.763 63.1671H157.745V62.1671H154.763V63.1671ZM159.733 63.1671H162.715V62.1671H159.733V63.1671ZM164.703 63.1671H167.685V62.1671H164.703V63.1671ZM169.673 63.1671H172.655V62.1671H169.673V63.1671ZM174.643 63.1671H177.625V62.1671H174.643V63.1671ZM179.614 63.1671H182.596V62.1671H179.614V63.1671ZM184.584 63.1671H187.566V62.1671H184.584V63.1671ZM189.554 63.1671H192.536V62.1671H189.554V63.1671ZM194.524 63.1671H197.506V62.1671H194.524V63.1671ZM199.494 63.1671H202.476V62.1671H199.494V63.1671ZM204.464 63.1671H207.446V62.1671H204.464V63.1671ZM209.434 63.1671H212.417V62.1671H209.434V63.1671ZM214.405 63.1671H217.387V62.1671H214.405V63.1671ZM219.375 63.1671H222.357V62.1671H219.375V63.1671ZM224.345 63.1671H227.327V62.1671H224.345V63.1671ZM229.315 63.1671H232.297V62.1671H229.315V63.1671ZM234.285 63.1671H237.267V62.1671H234.285V63.1671ZM239.255 63.1671H242.237V62.1671H239.255V63.1671ZM244.226 63.1671H247.208V62.1671H244.226V63.1671ZM249.196 63.1671H252.178V62.1671H249.196V63.1671ZM254.166 63.1671H257.148V62.1671H254.166V63.1671ZM259.136 63.1671H262.118V62.1671H259.136V63.1671ZM264.106 63.1671H267.088V62.1671H264.106V63.1671ZM269.076 63.1671H272.058V62.1671H269.076V63.1671ZM274.046 63.1671H277.029V62.1671H274.046V63.1671ZM279.017 63.1671H281.999V62.1671H279.017V63.1671ZM283.987 63.1671H286.969V62.1671H283.987V63.1671ZM288.957 63.1671H291.939V62.1671H288.957V63.1671ZM293.927 63.1671H296.909V62.1671H293.927V63.1671ZM298.897 63.1671H301.879V62.1671H298.897V63.1671ZM303.867 63.1671H306.849V62.1671H303.867V63.1671ZM308.838 63.1671H311.82V62.1671H308.838V63.1671ZM313.808 63.1671H316.79V62.1671H313.808V63.1671ZM318.778 63.1671H321.76V62.1671H318.778V63.1671ZM323.748 63.1671H326.73V62.1671H323.748V63.1671ZM328.718 63.1671H331.7V62.1671H328.718V63.1671ZM333.688 63.1671H336.67V62.1671H333.688V63.1671ZM338.658 63.1671H341.641V62.1671H338.658V63.1671ZM343.629 63.1671H346.611V62.1671H343.629V63.1671ZM348.599 63.1671H351.581V62.1671H348.599V63.1671ZM353.569 63.1671H356.551V62.1671H353.569V63.1671ZM358.539 63.1671H361.521V62.1671H358.539V63.1671ZM363.509 63.1671H365V62.1671H363.509V63.1671ZM365 63.1671C365.515 63.1671 366.026 63.1471 366.531 63.1079L366.454 62.1109C365.974 62.1481 365.489 62.1671 365 62.1671V63.1671ZM368.555 62.8437C369.57 62.6567 370.558 62.3911 371.511 62.0533L371.178 61.1107C370.273 61.431 369.337 61.6829 368.374 61.8603L368.555 62.8437ZM373.397 61.2714C374.323 60.829 375.208 60.3159 376.046 59.7389L375.479 58.9153C374.684 59.4627 373.844 59.9495 372.966 60.3691L373.397 61.2714ZM377.665 58.4952C378.441 57.8315 379.165 57.108 379.828 56.3316L379.068 55.6818C378.438 56.4186 377.752 57.1053 377.015 57.7351L377.665 58.4952ZM381.072 54.7132C381.649 53.8752 382.162 52.9899 382.604 52.0641L381.702 51.633C381.283 52.5111 380.796 53.351 380.248 54.146L381.072 54.7132ZM383.386 50.1784C383.724 49.2248 383.99 48.2371 384.177 47.2219L383.193 47.0407C383.016 48.0036 382.764 48.9402 382.444 49.8446L383.386 50.1784ZM384.441 45.198C384.48 44.6928 384.5 44.1822 384.5 43.6671H383.5C383.5 44.1563 383.481 44.641 383.444 45.1205L384.441 45.198ZM384.5 43.6671V42.0645H383.5V43.6671H384.5ZM384.5 39.9278V36.7228H383.5V39.9278H384.5ZM384.5 34.5861V31.381H383.5V34.5861H384.5ZM384.5 29.2444V26.0393H383.5V29.2444H384.5ZM384.5 23.9026V20.6976H383.5V23.9026H384.5ZM384.5 18.5609V15.3558H383.5V18.5609H384.5ZM384.5 13.2191V11.6166H383.5V13.2191H384.5ZM384.5 11.6166L384.5 11.6169L383.609 11.1622C383.539 11.2991 383.5 11.454 383.5 11.6166H384.5ZM384.5 11.6163L384.5 11.6166V10.6166C384.337 10.6166 384.183 10.6558 384.046 10.7257L384.5 11.6163ZM384.5 11.6166L384.5 11.6163L384.954 10.7257C384.818 10.6558 384.663 10.6166 384.5 10.6166V11.6166ZM384.5 11.6169L384.5 11.6166H385.5C385.5 11.454 385.461 11.2991 385.391 11.1622L384.5 11.6169ZM384.5 11.6166V13.2191H385.5V11.6166H384.5ZM384.5 15.3558V18.5609H385.5V15.3558H384.5ZM384.5 20.6976V23.9026H385.5V20.6976H384.5ZM384.5 26.0393V29.2444H385.5V26.0393H384.5ZM384.5 31.381V34.5861H385.5V31.381H384.5ZM384.5 36.7228V39.9278H385.5V36.7228H384.5ZM384.5 42.0645V43.6671H385.5V42.0645H384.5ZM384.5 43.6671C384.5 44.1828 384.48 44.6937 384.441 45.1991L385.438 45.2765C385.479 44.7454 385.5 44.2086 385.5 43.6671H384.5ZM384.177 47.223C383.99 48.2379 383.724 49.2253 383.387 50.1785L384.329 50.5123C384.684 49.5098 384.964 48.4714 385.16 47.4042L384.177 47.223ZM382.605 52.0636C382.163 52.9891 381.649 53.8745 381.072 54.7125L381.896 55.2796C382.503 54.3987 383.042 53.468 383.507 52.4947L382.605 52.0636ZM379.828 56.3313C379.165 57.1078 378.441 57.8316 377.664 58.4955L378.314 59.2556C379.13 58.5579 379.891 57.7972 380.589 56.9811L379.828 56.3313ZM376.045 59.7395C375.207 60.3165 374.322 60.8297 373.397 61.2719L373.828 62.1742C374.801 61.7092 375.732 61.1697 376.613 60.5631L376.045 59.7395ZM371.511 62.0536C370.558 62.3912 369.571 62.6567 368.556 62.8437L368.737 63.8272C369.804 63.6306 370.843 63.3513 371.845 62.9962L371.511 62.0536ZM366.532 63.1078C366.027 63.1471 365.516 63.1671 365 63.1671V64.1671C365.542 64.1671 366.078 64.1461 366.61 64.1048L366.532 63.1078ZM365 63.1671H363.509V64.1671H365V63.1671ZM361.521 63.1671H358.539V64.1671H361.521V63.1671ZM356.551 63.1671H353.569V64.1671H356.551V63.1671ZM351.581 63.1671H348.599V64.1671H351.581V63.1671ZM346.611 63.1671H343.628V64.1671H346.611V63.1671ZM341.64 63.1671H338.658V64.1671H341.64V63.1671ZM336.67 63.1671H333.688V64.1671H336.67V63.1671ZM331.7 63.1671H328.718V64.1671H331.7V63.1671ZM326.73 63.1671H323.748V64.1671H326.73V63.1671ZM321.76 63.1671H318.778V64.1671H321.76V63.1671ZM316.79 63.1671H313.808V64.1671H316.79V63.1671ZM311.819 63.1671H308.837V64.1671H311.819V63.1671ZM306.849 63.1671H303.867V64.1671H306.849V63.1671ZM301.879 63.1671H298.897V64.1671H301.879V63.1671ZM296.909 63.1671H293.927V64.1671H296.909V63.1671ZM291.939 63.1671H288.957V64.1671H291.939V63.1671ZM286.969 63.1671H283.987V64.1671H286.969V63.1671ZM281.999 63.1671H279.016V64.1671H281.999V63.1671ZM277.028 63.1671H274.046V64.1671H277.028V63.1671ZM272.058 63.1671H269.076V64.1671H272.058V63.1671ZM267.088 63.1671H264.106V64.1671H267.088V63.1671ZM262.118 63.1671H259.136V64.1671H262.118V63.1671ZM257.148 63.1671H254.166V64.1671H257.148V63.1671ZM252.178 63.1671H249.196V64.1671H252.178V63.1671ZM247.207 63.1671H244.225V64.1671H247.207V63.1671ZM242.237 63.1671H239.255V64.1671H242.237V63.1671ZM237.267 63.1671H234.285V64.1671H237.267V63.1671ZM232.297 63.1671H229.315V64.1671H232.297V63.1671ZM227.327 63.1671H224.345V64.1671H227.327V63.1671ZM222.357 63.1671H219.375V64.1671H222.357V63.1671ZM217.387 63.1671H214.404V64.1671H217.387V63.1671ZM212.416 63.1671H209.434V64.1671H212.416V63.1671ZM207.446 63.1671H204.464V64.1671H207.446V63.1671ZM202.476 63.1671H199.494V64.1671H202.476V63.1671ZM197.506 63.1671H194.524V64.1671H197.506V63.1671ZM192.536 63.1671H189.554V64.1671H192.536V63.1671ZM187.566 63.1671H184.584V64.1671H187.566V63.1671ZM182.595 63.1671H179.613V64.1671H182.595V63.1671ZM177.625 63.1671H174.643V64.1671H177.625V63.1671ZM172.655 63.1671H169.673V64.1671H172.655V63.1671ZM167.685 63.1671H164.703V64.1671H167.685V63.1671ZM162.715 63.1671H159.733V64.1671H162.715V63.1671ZM157.745 63.1671H154.763V64.1671H157.745V63.1671ZM152.775 63.1671H149.792V64.1671H152.775V63.1671ZM147.804 63.1671H144.822V64.1671H147.804V63.1671ZM142.834 63.1671H139.852V64.1671H142.834V63.1671ZM137.864 63.1671H134.882V64.1671H137.864V63.1671ZM132.894 63.1671H129.912V64.1671H132.894V63.1671ZM127.924 63.1671H124.942V64.1671H127.924V63.1671ZM122.954 63.1671H119.972V64.1671H122.954V63.1671ZM117.983 63.1671H115.001V64.1671H117.983V63.1671ZM113.013 63.1671H110.031V64.1671H113.013V63.1671ZM108.043 63.1671H105.061V64.1671H108.043V63.1671ZM103.073 63.1671H100.091V64.1671H103.073V63.1671ZM98.1029 63.1671H95.1208V64.1671H98.1029V63.1671ZM93.1327 63.1671H90.1506V64.1671H93.1327V63.1671ZM88.1625 63.1671H85.1805V64.1671H88.1625V63.1671ZM83.1924 63.1671H80.2103V64.1671H83.1924V63.1671ZM78.2222 63.1671H75.2402V64.1671H78.2222V63.1671ZM73.2521 63.1671H70.27V64.1671H73.2521V63.1671ZM68.2819 63.1671H65.2998V64.1671H68.2819V63.1671ZM63.3118 63.1671H60.3297V64.1671H63.3118V63.1671ZM58.3416 63.1671H55.3595V64.1671H58.3416V63.1671ZM53.3715 63.1671H50.3894V64.1671H53.3715V63.1671ZM48.4013 63.1671H45.4192V64.1671H48.4013V63.1671ZM43.4312 63.1671H40.4491V64.1671H43.4312V63.1671ZM38.461 63.1671H35.4789V64.1671H38.461V63.1671ZM33.4909 63.1671H32V64.1671H33.4909V63.1671ZM32 63.1671C31.4843 63.1671 30.9734 63.1471 30.468 63.1078L30.3906 64.1048C30.9217 64.1461 31.4585 64.1671 32 64.1671V63.1671ZM28.4441 62.8437C27.4291 62.6567 26.4418 62.3912 25.4886 62.0536L25.1548 62.9962C26.1573 63.3513 27.1956 63.6306 28.2629 63.8272L28.4441 62.8437ZM23.6035 61.2719C22.6779 60.8297 21.7926 60.3165 20.9546 59.7395L20.3875 60.5631C21.2684 61.1697 22.1991 61.7092 23.1724 62.1742L23.6035 61.2719ZM19.3358 58.4955C18.5592 57.8317 17.8354 57.1079 17.1716 56.3313L16.4115 56.9811C17.1092 57.7972 17.8699 58.5579 18.686 59.2556L19.3358 58.4955ZM15.9276 54.7125C15.3506 53.8745 14.8374 52.9892 14.3952 52.0636L13.4929 52.4947C13.9579 53.468 14.4974 54.3987 15.104 55.2796L15.9276 54.7125ZM13.6135 50.1785C13.2759 49.2253 13.0103 48.238 12.8234 47.223L11.8399 47.4042C12.0365 48.4715 12.3158 49.5098 12.6708 50.5123L13.6135 50.1785ZM12.5593 45.1991C12.52 44.6937 12.5 44.1828 12.5 43.6671H11.5C11.5 44.2086 11.521 44.7454 11.5623 45.2765L12.5593 45.1991ZM13 43.6671V42.0646H11V43.6671H13ZM13 39.9279V36.7228H11V39.9279H13ZM13 34.5861V31.3811H11V34.5861H13ZM13 29.2444V26.0393H11V29.2444H13ZM13 23.9026V20.6976H11V23.9026H13ZM13 18.5609V15.3558H11V18.5609H13ZM13 13.2191V11.6166H11V13.2191H13ZM13 11.6166C13 11.6965 12.9805 11.7748 12.945 11.8442L11.1638 10.9348C11.0588 11.1405 11 11.3731 11 11.6166H13ZM12.7277 12.0616C12.6583 12.0971 12.58 12.1166 12.5 12.1166V10.1166C12.2565 10.1166 12.0239 10.1753 11.8182 10.2803L12.7277 12.0616ZM12.5 12.1166C12.42 12.1166 12.3417 12.0971 12.2723 12.0616L13.1818 10.2803C12.9761 10.1753 12.7435 10.1166 12.5 10.1166V12.1166ZM12.055 11.8442C12.0195 11.7748 12 11.6965 12 11.6166H14C14 11.3731 13.9412 11.1405 13.8362 10.9348L12.055 11.8442ZM12 11.6166V13.2191H14V11.6166H12ZM12 15.3558V18.5609H14V15.3558H12ZM12 20.6976V23.9026H14V20.6976H12ZM12 26.0393V29.2444H14V26.0393H12ZM12 31.3811V34.5861H14V31.3811H12ZM12 36.7228V39.9279H14V36.7228H12ZM12 42.0646V43.6671H14V42.0646H12ZM12 43.6671C12 44.1951 12.0205 44.7186 12.0607 45.2367L14.0547 45.0818C14.0185 44.6152 14 44.1434 14 43.6671H12ZM12.3316 47.3125C12.5235 48.3538 12.796 49.367 13.1424 50.3453L15.0277 49.6777C14.7161 48.798 14.4711 47.8868 14.2985 46.9501L12.3316 47.3125ZM13.9445 52.2797C14.3983 53.2293 14.9247 54.1374 15.5164 54.9967L17.1636 53.8625C16.6309 53.0889 16.1573 52.2717 15.7491 51.4174L13.9445 52.2797ZM16.7918 56.6565C17.4724 57.4527 18.2144 58.1947 19.0106 58.8753L20.3102 57.355C19.5932 56.7421 18.925 56.0739 18.312 55.3569L16.7918 56.6565ZM20.6704 60.1507C21.5297 60.7424 22.4378 61.2688 23.3874 61.7226L24.2497 59.918C23.3954 59.5098 22.5782 59.0361 21.8046 58.5035L20.6704 60.1507ZM25.3218 62.5247C26.3001 62.8711 27.3133 63.1436 28.3546 63.3355L28.717 61.3686C27.7803 61.196 26.8691 60.9509 25.9894 60.6394L25.3218 62.5247ZM30.4304 63.6063C30.9485 63.6466 31.472 63.6671 32 63.6671V61.6671C31.5237 61.6671 31.0519 61.6486 30.5853 61.6124L30.4304 63.6063ZM32 63.6671H33.4911V61.6671H32V63.6671ZM35.4791 63.6671H38.4612V61.6671H35.4791V63.6671ZM40.4493 63.6671H43.4314V61.6671H40.4493V63.6671ZM45.4194 63.6671H48.4015V61.6671H45.4194V63.6671ZM50.3896 63.6671H53.3717V61.6671H50.3896V63.6671ZM55.3597 63.6671H58.3418V61.6671H55.3597V63.6671ZM60.3299 63.6671H63.312V61.6671H60.3299V63.6671ZM65.3 63.6671H68.2821V61.6671H65.3V63.6671ZM70.2702 63.6671H73.2523V61.6671H70.2702V63.6671ZM75.2403 63.6671H78.2224V61.6671H75.2403V63.6671ZM80.2105 63.6671H83.1926V61.6671H80.2105V63.6671ZM85.1806 63.6671H88.1627V61.6671H85.1806V63.6671ZM90.1508 63.6671H93.1329V61.6671H90.1508V63.6671ZM95.1209 63.6671H98.103V61.6671H95.1209V63.6671ZM100.091 63.6671H103.073V61.6671H100.091V63.6671ZM105.061 63.6671H108.043V61.6671H105.061V63.6671ZM110.031 63.6671H113.013V61.6671H110.031V63.6671ZM115.002 63.6671H117.984V61.6671H115.002V63.6671ZM119.972 63.6671H122.954V61.6671H119.972V63.6671ZM124.942 63.6671H127.924V61.6671H124.942V63.6671ZM129.912 63.6671H132.894V61.6671H129.912V63.6671ZM134.882 63.6671H137.864V61.6671H134.882V63.6671ZM139.852 63.6671H142.834V61.6671H139.852V63.6671ZM144.822 63.6671H147.805V61.6671H144.822V63.6671ZM149.793 63.6671H152.775V61.6671H149.793V63.6671ZM154.763 63.6671H157.745V61.6671H154.763V63.6671ZM159.733 63.6671H162.715V61.6671H159.733V63.6671ZM164.703 63.6671H167.685V61.6671H164.703V63.6671ZM169.673 63.6671H172.655V61.6671H169.673V63.6671ZM174.643 63.6671H177.625V61.6671H174.643V63.6671ZM179.614 63.6671H182.596V61.6671H179.614V63.6671ZM184.584 63.6671H187.566V61.6671H184.584V63.6671ZM189.554 63.6671H192.536V61.6671H189.554V63.6671ZM194.524 63.6671H197.506V61.6671H194.524V63.6671ZM199.494 63.6671H202.476V61.6671H199.494V63.6671ZM204.464 63.6671H207.446V61.6671H204.464V63.6671ZM209.434 63.6671H212.417V61.6671H209.434V63.6671ZM214.405 63.6671H217.387V61.6671H214.405V63.6671ZM219.375 63.6671H222.357V61.6671H219.375V63.6671ZM224.345 63.6671H227.327V61.6671H224.345V63.6671ZM229.315 63.6671H232.297V61.6671H229.315V63.6671ZM234.285 63.6671H237.267V61.6671H234.285V63.6671ZM239.255 63.6671H242.237V61.6671H239.255V63.6671ZM244.226 63.6671H247.208V61.6671H244.226V63.6671ZM249.196 63.6671H252.178V61.6671H249.196V63.6671ZM254.166 63.6671H257.148V61.6671H254.166V63.6671ZM259.136 63.6671H262.118V61.6671H259.136V63.6671ZM264.106 63.6671H267.088V61.6671H264.106V63.6671ZM269.076 63.6671H272.058V61.6671H269.076V63.6671ZM274.046 63.6671H277.029V61.6671H274.046V63.6671ZM279.017 63.6671H281.999V61.6671H279.017V63.6671ZM283.987 63.6671H286.969V61.6671H283.987V63.6671ZM288.957 63.6671H291.939V61.6671H288.957V63.6671ZM293.927 63.6671H296.909V61.6671H293.927V63.6671ZM298.897 63.6671H301.879V61.6671H298.897V63.6671ZM303.867 63.6671H306.849V61.6671H303.867V63.6671ZM308.838 63.6671H311.82V61.6671H308.838V63.6671ZM313.808 63.6671H316.79V61.6671H313.808V63.6671ZM318.778 63.6671H321.76V61.6671H318.778V63.6671ZM323.748 63.6671H326.73V61.6671H323.748V63.6671ZM328.718 63.6671H331.7V61.6671H328.718V63.6671ZM333.688 63.6671H336.67V61.6671H333.688V63.6671ZM338.658 63.6671H341.641V61.6671H338.658V63.6671ZM343.629 63.6671H346.611V61.6671H343.629V63.6671ZM348.599 63.6671H351.581V61.6671H348.599V63.6671ZM353.569 63.6671H356.551V61.6671H353.569V63.6671ZM358.539 63.6671H361.521V61.6671H358.539V63.6671ZM363.509 63.6671H365V61.6671H363.509V63.6671ZM365 63.6671C365.528 63.6671 366.052 63.6466 366.57 63.6063L366.415 61.6124C365.948 61.6486 365.476 61.6671 365 61.6671V63.6671ZM368.645 63.3355C369.687 63.1436 370.7 62.8711 371.678 62.5247L371.011 60.6394C370.131 60.9509 369.22 61.196 368.283 61.3686L368.645 63.3355ZM373.613 61.7226C374.562 61.2688 375.47 60.7424 376.33 60.1507L375.195 58.5034C374.422 59.0361 373.605 59.5098 372.75 59.918L373.613 61.7226ZM377.99 58.8753C378.786 58.1947 379.528 57.4527 380.208 56.6565L378.688 55.3569C378.075 56.0739 377.407 56.7421 376.69 57.355L377.99 58.8753ZM381.484 54.9967C382.075 54.1374 382.602 53.2293 383.056 52.2797L381.251 51.4174C380.843 52.2717 380.369 53.0889 379.836 53.8625L381.484 54.9967ZM383.858 50.3453C384.204 49.367 384.477 48.3538 384.668 47.3125L382.702 46.9501C382.529 47.8868 382.284 48.798 381.972 49.6776L383.858 50.3453ZM384.939 45.2367C384.98 44.7186 385 44.1951 385 43.6671H383C383 44.1434 382.982 44.6152 382.945 45.0818L384.939 45.2367ZM385 43.6671V42.0645H383V43.6671H385ZM385 39.9278V36.7228H383V39.9278H385ZM385 34.5861V31.381H383V34.5861H385ZM385 29.2444V26.0393H383V29.2444H385ZM385 23.9026V20.6976H383V23.9026H385ZM385 18.5609V15.3558H383V18.5609H385ZM385 13.2191V11.6166H383V13.2191H385ZM385 11.6166C385 11.6965 384.981 11.7748 384.945 11.8442L383.164 10.9348C383.059 11.1405 383 11.3731 383 11.6166H385ZM384.728 12.0616C384.658 12.097 384.58 12.1166 384.5 12.1166V10.1166C384.257 10.1166 384.024 10.1753 383.818 10.2803L384.728 12.0616ZM384.5 12.1166C384.42 12.1166 384.342 12.097 384.272 12.0616L385.182 10.2803C384.976 10.1753 384.744 10.1166 384.5 10.1166V12.1166ZM384.055 11.8442C384.02 11.7748 384 11.6965 384 11.6166H386C386 11.3731 385.941 11.1405 385.836 10.9348L384.055 11.8442ZM384 11.6166V13.2191H386V11.6166H384ZM384 15.3558V18.5609H386V15.3558H384ZM384 20.6976V23.9026H386V20.6976H384ZM384 26.0393V29.2444H386V26.0393H384ZM384 31.381V34.5861H386V31.381H384ZM384 36.7228V39.9278H386V36.7228H384ZM384 42.0645V43.6671H386V42.0645H384ZM384 43.6671C384 44.1698 383.981 44.6678 383.942 45.1604L385.936 45.3153C385.979 44.7712 386 44.2216 386 43.6671H384ZM383.685 47.1324C383.503 48.1212 383.244 49.083 382.915 50.0116L384.801 50.6792C385.164 49.652 385.45 48.5882 385.652 47.4948L383.685 47.1324ZM382.154 51.848C381.723 52.7497 381.223 53.6123 380.661 54.4289L382.308 55.5632C382.929 54.6608 383.482 53.7074 383.958 52.7103L382.154 51.848ZM379.448 56.0064C378.801 56.7632 378.096 57.4685 377.339 58.1155L378.639 59.6357C379.475 58.921 380.254 58.1419 380.969 57.306L379.448 56.0064ZM375.762 59.3277C374.945 59.8899 374.083 60.3899 373.181 60.8208L374.043 62.6253C375.04 62.1489 375.994 61.5962 376.896 60.9749L375.762 59.3277ZM371.345 61.5823C370.416 61.9111 369.454 62.1698 368.465 62.352L368.828 64.3189C369.921 64.1175 370.985 63.8313 372.012 63.4676L371.345 61.5823ZM366.493 62.6093C366.001 62.6476 365.503 62.6671 365 62.6671V64.6671C365.555 64.6671 366.104 64.6456 366.648 64.6033L366.493 62.6093ZM365 62.6671H363.509V64.6671H365V62.6671ZM361.521 62.6671H358.539V64.6671H361.521V62.6671ZM356.551 62.6671H353.569V64.6671H356.551V62.6671ZM351.581 62.6671H348.599V64.6671H351.581V62.6671ZM346.611 62.6671H343.628V64.6671H346.611V62.6671ZM341.64 62.6671H338.658V64.6671H341.64V62.6671ZM336.67 62.6671H333.688V64.6671H336.67V62.6671ZM331.7 62.6671H328.718V64.6671H331.7V62.6671ZM326.73 62.6671H323.748V64.6671H326.73V62.6671ZM321.76 62.6671H318.778V64.6671H321.76V62.6671ZM316.79 62.6671H313.808V64.6671H316.79V62.6671ZM311.819 62.6671H308.837V64.6671H311.819V62.6671ZM306.849 62.6671H303.867V64.6671H306.849V62.6671ZM301.879 62.6671H298.897V64.6671H301.879V62.6671ZM296.909 62.6671H293.927V64.6671H296.909V62.6671ZM291.939 62.6671H288.957V64.6671H291.939V62.6671ZM286.969 62.6671H283.987V64.6671H286.969V62.6671ZM281.999 62.6671H279.016V64.6671H281.999V62.6671ZM277.028 62.6671H274.046V64.6671H277.028V62.6671ZM272.058 62.6671H269.076V64.6671H272.058V62.6671ZM267.088 62.6671H264.106V64.6671H267.088V62.6671ZM262.118 62.6671H259.136V64.6671H262.118V62.6671ZM257.148 62.6671H254.166V64.6671H257.148V62.6671ZM252.178 62.6671H249.196V64.6671H252.178V62.6671ZM247.207 62.6671H244.225V64.6671H247.207V62.6671ZM242.237 62.6671H239.255V64.6671H242.237V62.6671ZM237.267 62.6671H234.285V64.6671H237.267V62.6671ZM232.297 62.6671H229.315V64.6671H232.297V62.6671ZM227.327 62.6671H224.345V64.6671H227.327V62.6671ZM222.357 62.6671H219.375V64.6671H222.357V62.6671ZM217.387 62.6671H214.404V64.6671H217.387V62.6671ZM212.416 62.6671H209.434V64.6671H212.416V62.6671ZM207.446 62.6671H204.464V64.6671H207.446V62.6671ZM202.476 62.6671H199.494V64.6671H202.476V62.6671ZM197.506 62.6671H194.524V64.6671H197.506V62.6671ZM192.536 62.6671H189.554V64.6671H192.536V62.6671ZM187.566 62.6671H184.584V64.6671H187.566V62.6671ZM182.595 62.6671H179.613V64.6671H182.595V62.6671ZM177.625 62.6671H174.643V64.6671H177.625V62.6671ZM172.655 62.6671H169.673V64.6671H172.655V62.6671ZM167.685 62.6671H164.703V64.6671H167.685V62.6671ZM162.715 62.6671H159.733V64.6671H162.715V62.6671ZM157.745 62.6671H154.763V64.6671H157.745V62.6671ZM152.775 62.6671H149.792V64.6671H152.775V62.6671ZM147.804 62.6671H144.822V64.6671H147.804V62.6671ZM142.834 62.6671H139.852V64.6671H142.834V62.6671ZM137.864 62.6671H134.882V64.6671H137.864V62.6671ZM132.894 62.6671H129.912V64.6671H132.894V62.6671ZM127.924 62.6671H124.942V64.6671H127.924V62.6671ZM122.954 62.6671H119.972V64.6671H122.954V62.6671ZM117.983 62.6671H115.001V64.6671H117.983V62.6671ZM113.013 62.6671H110.031V64.6671H113.013V62.6671ZM108.043 62.6671H105.061V64.6671H108.043V62.6671ZM103.073 62.6671H100.091V64.6671H103.073V62.6671ZM98.1029 62.6671H95.1208V64.6671H98.1029V62.6671ZM93.1327 62.6671H90.1506V64.6671H93.1327V62.6671ZM88.1625 62.6671H85.1805V64.6671H88.1625V62.6671ZM83.1924 62.6671H80.2103V64.6671H83.1924V62.6671ZM78.2222 62.6671H75.2402V64.6671H78.2222V62.6671ZM73.2521 62.6671H70.27V64.6671H73.2521V62.6671ZM68.2819 62.6671H65.2998V64.6671H68.2819V62.6671ZM63.3118 62.6671H60.3297V64.6671H63.3118V62.6671ZM58.3416 62.6671H55.3595V64.6671H58.3416V62.6671ZM53.3715 62.6671H50.3894V64.6671H53.3715V62.6671ZM48.4013 62.6671H45.4192V64.6671H48.4013V62.6671ZM43.4312 62.6671H40.4491V64.6671H43.4312V62.6671ZM38.461 62.6671H35.4789V64.6671H38.461V62.6671ZM33.4909 62.6671H32V64.6671H33.4909V62.6671ZM32 62.6671C31.4973 62.6671 30.9993 62.6476 30.5067 62.6093L30.3518 64.6033C30.8959 64.6456 31.4455 64.6671 32 64.6671V62.6671ZM28.5346 62.352C27.5459 62.1698 26.5841 61.9111 25.6555 61.5823L24.9879 63.4676C26.015 63.8313 27.0789 64.1175 28.1723 64.3189L28.5346 62.352ZM23.8191 60.8208C22.9174 60.3899 22.0548 59.8899 21.2382 59.3277L20.1039 60.9749C21.0062 61.5962 21.9597 62.1489 22.9568 62.6254L23.8191 60.8208ZM19.6607 58.1155C18.9039 57.4685 18.1986 56.7632 17.5516 56.0064L16.0314 57.306C16.746 58.1419 17.5252 58.9211 18.3611 59.6357L19.6607 58.1155ZM16.3394 54.4289C15.7771 53.6123 15.2772 52.7497 14.8463 51.848L13.0417 52.7103C13.5182 53.7074 14.0709 54.6609 14.6922 55.5632L16.3394 54.4289ZM14.0848 50.0116C13.7559 49.083 13.4972 48.1212 13.3151 47.1325L11.3482 47.4948C11.5496 48.5882 11.8358 49.6521 12.1995 50.6792L14.0848 50.0116ZM13.0578 45.1604C13.0195 44.6678 13 44.1698 13 43.6671H11C11 44.2216 11.0215 44.7712 11.0638 45.3153L13.0578 45.1604Z" fill="#007BFF" mask="url(#path-1-inside-1)"/>
<path d="M17.4301 14.6536L12.3772 9.60062L7.32422 14.6536L17.4301 14.6536Z" fill="#007BFF"/>
</svg>
